<?xml version="1.0" encoding="UTF-8" standalone="no"?>
<!DOCTYPE svg PUBLIC "-//W3C//DTD SVG 1.1//EN" "http://www.w3.org/Graphics/SVG/1.1/DTD/svg11.dtd">
<svg width="100%" height="100%" viewBox="0 0 512 512" version="1.1" xmlns="http://www.w3.org/2000/svg" xmlns:xlink="http://www.w3.org/1999/xlink" xml:space="preserve" xmlns:serif="http://www.serif.com/" style="fill-rule:evenodd;clip-rule:evenodd;stroke-linejoin:round;stroke-miterlimit:2;">
    <path d="M494.2,221.9L434.4,181.4L448.1,110.4C450.7,97.2 446.5,83.6 437,74C427.4,64.5 413.8,60.3 400.8,62.9L329.9,76.6L289.5,16.7C274.4,-5.6 237.6,-5.6 222.5,16.7L182.1,76.6L111.3,62.9C98,60.4 84.5,64.5 75,74.1C65.5,83.7 61.3,97.2 63.9,110.4L77.6,181.4L17.8,221.9C6.6,229.5 0,242 0,255.5C0,269 6.7,281.5 17.8,289L77.6,329.5L63.9,400.5C61.3,413.7 65.5,427.3 75,436.8C84.5,446.3 97.9,450.5 111.3,447.9L182.1,434.2L222.5,494.1C230,505.3 242.6,512 256,512C269.4,512 282,505.3 289.5,494.2L329.9,434.3L400.8,448C414.2,450.7 427.6,446.4 437.1,436.9C446.6,427.4 450.7,413.8 448.2,400.6L434.5,329.6L494.3,289.1C505.4,281.6 512.1,269 512.1,255.6C512,242 505.4,229.5 494.2,221.9ZM381.3,307.5L398.9,398.7L307.9,381.1L256,458L204.1,381L113.2,398.6L130.8,307.4L54,255.4L130.8,203.4L113.2,112.2L204.2,129.8L256,53L307.9,129.9L398.9,112.3L381.3,203.4L458.1,255.4L381.3,307.5ZM256,152C198.7,152 152,198.7 152,256C152,313.3 198.7,360 256,360C313.3,360 360,313.3 360,256C360,198.7 313.3,152 256,152ZM256,312C225.1,312 200,286.9 200,256C200,225.1 225.1,200 256,200C286.9,200 312,225.1 312,256C312,286.9 286.9,312 256,312Z" style="fill:white;fill-rule:nonzero;"/>
</svg>
